# xmcd
#
# Track frame offsets:
# 150
# 10122
# 26015
# 36650
# 51875
# 63972
# 75825
# 90041
# 103946
# 120570
# 134813
# 147394
# 167102
# 180657
# 192867
#
# Disc length: 2758 seconds
#
#
# Revision: 0
# Processed by: cddbd v1.5.2PL0 Copyright (c) Steve Scherf et al.
# Submitted via: FreeRIP 2.96 
#
DISCID=c70ac40f
DTITLE=Various Artist - Bolero The History of Romance Disc 2
DYEAR=1900
DGENRE=Other
TTITLE0=Llevatela
TTITLE1=La Barca
TTITLE2=Historia De Un Amor
TTITLE3=Angelitos Negros
TTITLE4=Sin Verguenza
TTITLE5=Boleros Bengalies
TTITLE6=Por que Negar
TTITLE7=Campanitas de Cristal
TTITLE8=Que quieres Tú De Mi
TTITLE9=Que Nadie Sepa Mi Sufrir
TTITLE10=Total
TTITLE11=Cuenta Conmigo
TTITLE12=Me interessa Tu Opinion
TTITLE13=Locamente Enamorado
TTITLE14=Esta Tarde Vi Llover
EXTD=
EXTT0=
EXTT1=
EXTT2=
EXTT3=
EXTT4=
EXTT5=
EXTT6=
EXTT7=
EXTT8=
EXTT9=
EXTT10=
EXTT11=
EXTT12=
EXTT13=
EXTT14=
PLAYORDER=
